<?xml version="1.0" encoding="UTF-8" ?><svg width="128" height="128" xmlns="http://www.w3.org/2000/svg"><linearGradient id="a" x1="30%" x2="60%" y1="0" y2="100%"><stop style="stop-color:#ff0000" offset="0.3"/><stop style="stop-color:#ff6600" offset="0.7"/><stop style="stop-color:#ffcc00" offset="1"/></linearGradient><title>Flame boys icon</title><path fill="url(#a)" d="m 54.326328,0 c 3.22681,11.68705 1.62961,24.87795 -5.84272,34.66645 -9.61273,13.54819 -25.80068,22.23923 -31.5595,38.46185 -3.51361,10.974377 -2.06931,23.399198 3.14531,33.6086 8.33973,15.58339 27.28469,22.19206 44.17545,21.15872 C 84.886433,125.50571 105.01569,110.8665 109.88661,90.122527 113.59342,74.69284 107.7541,58.57379 96.725273,46.64858 l -3.09542,-3.34698 c 0.29881,7.85144 -7.88542,10.36038 -7.37072,4.64749 C 87.534733,33.79014 81.900828,20.46994 71.220488,10.77402 66.355268,6.15773 60.593748,2.42466 54.326328,0 Z m -14.01414,58.15071 14.91605,29.584167 C 39.090978,90.576627 28.395648,69.38448 40.312188,58.15071 Z m 34.83341,0 c 11.720135,10.62127 1.46511,32.916437 -14.91075,29.584167 z m -51.25237,34.326318 c 18.25476,20.503202 53.81048,20.499622 72.066235,0 -5.89532,28.524832 -47.186855,37.803752 -64.682905,14.404442 -3.59752,-4.3257 -5.41742,-9.242182 -7.38333,-14.404442 z"/><g fill="#ff0000"><path d="m 112.9986,33.519429 c 0.0377,2.337697 -1.02219,4.614404 -2.87612,6.111417 -1.75455,1.815464 -4.32312,2.883722 -5.60131,5.112868 -1.13458,2.019068 0.009,4.4866 0.78324,6.256286 -3.53883,-1.569182 -7.159771,-3.690666 -9.028991,-7.138643 -1.66764,-3.298546 -1.95028,-7.714262 0.68038,-10.629057 1.77146,-2.053144 4.343421,-3.271407 6.079381,-5.344235 1.60291,-2.073801 0.65207,-4.828911 -0.45956,-6.888065 3.29291,1.379102 6.55252,3.332256 8.59113,6.282779 1.17044,1.857993 1.84987,4.052734 1.83289,6.23665 z"/><path d="m 21.001298,33.519414 c -0.0377,2.337695 1.02219,4.614418 2.87612,6.111411 1.754551,1.815459 4.323221,2.883717 5.601421,5.112871 1.13457,2.019065 -0.009,4.486584 -0.78325,6.25627 3.53885,-1.569172 7.1598,-3.690653 9.02901,-7.138634 1.66765,-3.298543 1.95028,-7.714246 -0.68038,-10.629037 -1.77145,-2.053149 -4.34351,-3.271413 -6.07939,-5.344239 -1.60291,-2.0738 -0.65208,-4.828896 0.45957,-6.888056 -3.29284,1.379099 -6.552451,3.332241 -8.591151,6.28278 -1.17034,1.857983 -1.84978,4.05272 -1.83289,6.236634 z"/></g><metadata><rdf:RDF xmlns:rdf="http://www.w3.org/1999/02/22-rdf-syntax-ns#" xmlns:dc="http://purl.org/dc/elements/1.1/"><rdf:Description dc:title="Flame Boys icon" dc:publisher.url="https://semantic.moscow" dc:format="image/svg+xml"><dc:creator>Semantic Moscow</dc:creator><dc:date>2022-06-30</dc:date></rdf:Description></rdf:RDF></metadata></svg>